<svg version="1.1" viewBox="0.0 0.0 100.0 100.0" fill="none" stroke="none" stroke-linecap="square" stroke-miterlimit="10" xmlns:xlink="http://www.w3.org/1999/xlink" xmlns="http://www.w3.org/2000/svg"><clipPath id="p.0"><path d="m0 0l100.0 0l0 100.0l-100.0 0l0 -100.0z" clip-rule="nonzero"/></clipPath><g clip-path="url(#p.0)"><path fill="#000000" fill-opacity="0.0" d="m0 0l100.0 0l0 100.0l-100.0 0z" fill-rule="evenodd"/><path fill="#000000" fill-opacity="0.0" d="m0 0l100.0 0l0 100.0l-100.0 0z" fill-rule="evenodd"/><path fill="#000000" d="m28.323715 63.92l0 -27.671875l12.28125 0q3.6875 0 5.609375 0.75q1.9375 0.734375 3.078125 2.625q1.15625 1.890625 1.15625 4.171875q0 2.953125 -1.90625 4.96875q-1.90625 2.015625 -5.890625 2.5625q1.453125 0.703125 2.21875 1.375q1.59375 1.484375 3.03125 3.6875l4.8125 7.53125l-4.609375 0l-3.65625 -5.75q-1.609375 -2.5 -2.640625 -3.8125q-1.03125 -1.328125 -1.859375 -1.859375q-0.828125 -0.53125 -1.671875 -0.734375q-0.625 -0.125 -2.03125 -0.125l-4.25 0l0 12.28125l-3.671875 0zm3.671875 -15.453125l7.875 0q2.5 0 3.90625 -0.515625q1.421875 -0.53125 2.15625 -1.671875q0.75 -1.140625 0.75 -2.484375q0 -1.953125 -1.4375 -3.21875q-1.421875 -1.265625 -4.5 -1.265625l-8.75 0l0 9.15625zm24.041306 15.453125l0 -27.671875l3.671875 0l0 24.40625l13.625 0l0 3.265625l-17.296875 0z" fill-rule="nonzero"/></g></svg>
