<svg version="1.1" viewBox="0.0 0.0 50.0 50.0" fill="none" stroke="none" stroke-linecap="square" stroke-miterlimit="10" xmlns:xlink="http://www.w3.org/1999/xlink" xmlns="http://www.w3.org/2000/svg"><clipPath id="p.0"><path d="m0 0l50.0 0l0 50.0l-50.0 0l0 -50.0z" clip-rule="nonzero"/></clipPath><g clip-path="url(#p.0)"><path fill="#000000" fill-opacity="0.0" d="m0 0l50.0 0l0 50.0l-50.0 0z" fill-rule="evenodd"/><path fill="#ff0000" d="m0 24.992126l0 0c0 -13.802771 11.189356 -24.992126 24.992126 -24.992126l0 0c6.6283226 0 12.985168 2.6330914 17.6721 7.320024c4.6869354 4.686933 7.3200264 11.043777 7.3200264 17.672102l0 0c0 13.802769 -11.189358 24.992126 -24.992126 24.992126l0 0c-13.802771 0 -24.992126 -11.189358 -24.992126 -24.992126z" fill-rule="evenodd"/><path fill="#ffffff" d="m16.866142 12.3307085l21.889763 12.661418l-21.889763 12.661415z" fill-rule="evenodd"/><path stroke="#ffffff" stroke-width="1.0" stroke-linejoin="round" stroke-linecap="butt" d="m16.866142 12.3307085l21.889763 12.661418l-21.889763 12.661415z" fill-rule="evenodd"/></g></svg>