<svg version="1.1" viewBox="0.0 0.0 50.0 50.0" fill="none" stroke="none" stroke-linecap="square" stroke-miterlimit="10" xmlns:xlink="http://www.w3.org/1999/xlink" xmlns="http://www.w3.org/2000/svg"><clipPath id="p.0"><path d="m0 0l50.0 0l0 50.0l-50.0 0l0 -50.0z" clip-rule="nonzero"/></clipPath><g clip-path="url(#p.0)"><path fill="#000000" fill-opacity="0.0" d="m0 0l50.0 0l0 50.0l-50.0 0z" fill-rule="evenodd"/><path fill="#f1ad32" d="m0 24.992126l0 0c0 -13.802771 11.189356 -24.992126 24.992126 -24.992126l0 0c6.6283226 0 12.985168 2.6330914 17.6721 7.320024c4.6869354 4.686933 7.3200264 11.043777 7.3200264 17.672102l0 0c0 13.802769 -11.189358 24.992126 -24.992126 24.992126l0 0c-13.802771 0 -24.992126 -11.189358 -24.992126 -24.992126z" fill-rule="evenodd"/><path fill="#000000" fill-opacity="0.0" d="m13.125984 17.084068l0 0c0 -2.1859894 1.7720947 -3.958084 3.958084 -3.958084l15.831863 0l0 0c1.0497475 0 2.0565033 0.41701126 2.7987862 1.159296c0.7422867 0.7422848 1.159298 1.7490387 1.159298 2.798788l0 15.831863c0 2.1859894 -1.7720947 3.958084 -3.958084 3.958084l-15.831863 0c-2.1859894 0 -3.958084 -1.7720947 -3.958084 -3.958084z" fill-rule="evenodd"/><path stroke="#ffffff" stroke-width="1.0" stroke-linejoin="round" stroke-linecap="butt" d="m13.125984 17.084068l0 0c0 -2.1859894 1.7720947 -3.958084 3.958084 -3.958084l15.831863 0l0 0c1.0497475 0 2.0565033 0.41701126 2.7987862 1.159296c0.7422867 0.7422848 1.159298 1.7490387 1.159298 2.798788l0 15.831863c0 2.1859894 -1.7720947 3.958084 -3.958084 3.958084l-15.831863 0c-2.1859894 0 -3.958084 -1.7720947 -3.958084 -3.958084z" fill-rule="evenodd"/><path fill="#000000" fill-opacity="0.0" d="m36.74643 32.601967l-4.9448833 -8.566927" fill-rule="evenodd"/><path stroke="#ffffff" stroke-width="1.0" stroke-linejoin="round" stroke-linecap="butt" d="m36.74643 32.601967l-4.9448833 -8.566927" fill-rule="evenodd"/><path fill="#000000" fill-opacity="0.0" d="m31.698545 24.175087l-2.9606285 5.1338577" fill-rule="evenodd"/><path stroke="#ffffff" stroke-width="1.0" stroke-linejoin="round" stroke-linecap="butt" d="m31.698545 24.175087l-2.9606285 5.1338577" fill-rule="evenodd"/><path fill="#000000" fill-opacity="0.0" d="m28.57346 29.151352l-0.9133854 -1.5748024" fill-rule="evenodd"/><path stroke="#ffffff" stroke-width="1.0" stroke-linejoin="round" stroke-linecap="butt" d="m28.57346 29.151352l-0.9133854 -1.5748024" fill-rule="evenodd"/><path fill="#000000" fill-opacity="0.0" d="m27.48402 27.662596l-7.275591 4.1889763" fill-rule="evenodd"/><path stroke="#ffffff" stroke-width="1.0" stroke-linejoin="round" stroke-linecap="butt" d="m27.48402 27.662596l-7.275591 4.1889763" fill-rule="evenodd"/><path fill="#000000" fill-opacity="0.0" d="m20.255087 31.948738l-6.8346453 -1.8267708" fill-rule="evenodd"/><path stroke="#ffffff" stroke-width="1.0" stroke-linejoin="round" stroke-linecap="butt" d="m20.255087 31.948738l-6.8346453 -1.8267708" fill-rule="evenodd"/><path fill="#000000" fill-opacity="0.0" d="m18.008932 20.316557l0 0c0 -1.7742691 1.4383297 -3.2125988 3.2125988 -3.2125988l0 0c0.8520336 0 1.6691704 0.33847046 2.2716503 0.9409485c0.602478 0.60247993 0.9409466 1.4196167 0.9409466 2.2716503l0 0c0 1.7742691 -1.4383278 3.2125988 -3.212597 3.2125988l0 0c-1.7742691 0 -3.2125988 -1.4383297 -3.2125988 -3.2125988z" fill-rule="evenodd"/><path stroke="#ffffff" stroke-width="1.0" stroke-linejoin="round" stroke-linecap="butt" d="m18.008932 20.316557l0 0c0 -1.7742691 1.4383297 -3.2125988 3.2125988 -3.2125988l0 0c0.8520336 0 1.6691704 0.33847046 2.2716503 0.9409485c0.602478 0.60247993 0.9409466 1.4196167 0.9409466 2.2716503l0 0c0 1.7742691 -1.4383278 3.2125988 -3.212597 3.2125988l0 0c-1.7742691 0 -3.2125988 -1.4383297 -3.2125988 -3.2125988z" fill-rule="evenodd"/><path fill="#ffffff" d="m19.742783 31.88189l0 0c0 -0.25222397 0.20446777 -0.45669174 0.45669174 -0.45669174l0 0c0.12112236 0 0.23728561 0.048114777 0.3229313 0.13376236c0.08564758 0.085645676 0.13376236 0.20180702 0.13376236 0.32292938l0 0c0 0.25222397 -0.20446777 0.45669174 -0.45669365 0.45669174l0 0c-0.25222397 0 -0.45669174 -0.20446777 -0.45669174 -0.45669174z" fill-rule="evenodd"/><path fill="#ffffff" d="m27.044619 27.629921l0 0c0 -0.33050156 0.25382423 -0.5984249 0.5669308 -0.5984249l0 0c0.1503582 0 0.29455948 0.06304741 0.4008789 0.1752739c0.10631943 0.112226486 0.16604996 0.26443863 0.16604996 0.42315102l0 0c0 0.33050156 -0.25382423 0.5984249 -0.56692886 0.5984249l0 0c-0.31310654 0 -0.5669308 -0.26792336 -0.5669308 -0.5984249z" fill-rule="evenodd"/><path fill="#ffffff" d="m28.178478 29.131233l0 0c0 -0.33050156 0.25382233 -0.5984249 0.56692886 -0.5984249l0 0c0.1503582 0 0.29455948 0.06304741 0.4008789 0.1752739c0.10631943 0.112226486 0.16604996 0.26443863 0.16604996 0.42315102l0 0c0 0.33050156 -0.25382233 0.5984249 -0.56692886 0.5984249l0 0c-0.31310654 0 -0.56692886 -0.26792336 -0.56692886 -0.5984249z" fill-rule="evenodd"/><path fill="#ffffff" d="m31.217848 24.128609l0 0c0 -0.33050156 0.25382233 -0.5984249 0.56692886 -0.5984249l0 0c0.1503601 0 0.2945614 0.06304741 0.4008808 0.1752739c0.10631943 0.112226486 0.16604996 0.26443863 0.16604996 0.42315102l0 0c0 0.33050156 -0.25382614 0.5984249 -0.5669308 0.5984249l0 0c-0.31310654 0 -0.56692886 -0.26792336 -0.56692886 -0.5984249z" fill-rule="evenodd"/></g></svg>