<?xml version="1.0"?>
<svg width="64" height="64" xmlns="http://www.w3.org/2000/svg" xmlns:svg="http://www.w3.org/2000/svg" clip-rule="evenodd" fill-rule="evenodd" stroke-linejoin="round" version="1.1" xml:space="preserve">
 <g class="layer">
  <title>Layer 1</title>
  <rect fill="none" height="800" id="Icons" width="1280" x="-896" y="0"/>
  <g id="Icons1" transform="matrix(1 0 0 1 0 0)">
   <g id="Strike"/>
   <g id="H1"/>
   <g id="H2"/>
   <g id="H3"/>
   <g id="list-ul"/>
   <g id="hamburger-1"/>
   <g id="hamburger-2"/>
   <g id="list-ol"/>
   <g id="list-task"/>
   <g id="trash"/>
   <g id="vertical-menu"/>
   <g id="horizontal-menu"/>
   <g id="sidebar-2"/>
   <g id="Pen"/>
   <g id="Pen1"/>
   <g id="clock"/>
   <g id="external-link">
    <path d="m37.03,20.06l-21.1,0c-1.65,0 -2.98,1.34 -2.98,2.99l0,25.96c0,1.65 1.33,2.99 2.98,2.99l26.03,0c1.65,0 2.99,-1.34 2.99,-2.99l0,-20.95l4,0l0,21.95c0,3.3 -2.69,5.99 -6,5.99l-28.01,0c-3.31,0 -5.99,-2.69 -5.99,-5.99l0,-27.96c0,-3.31 2.68,-5.99 5.99,-5.99l22.09,0l0,4z" fill="#ffffff" id="svg_1"/>
    <path d="m56.92,25.32l-4,0l0,-10.48l-27.89,27.89l-2.84,-2.83l27.9,-27.9l-10.49,0l0,-4l17.32,0l0.01,0l0,17.32l-0.01,0z" fill="#ffffff" id="svg_2"/>
   </g>
   <g id="hr"/>
   <g id="info"/>
   <g id="warning"/>
   <g id="plus-circle"/>
   <g id="minus-circle"/>
   <g id="vue"/>
   <g id="cog"/>
   <g id="logo"/>
   <g id="radio-check"/>
   <g id="eye-slash"/>
   <g id="eye"/>
   <g id="toggle-off"/>
   <g id="shredder"/>
   <g id="spinner--loading--dots-"/>
   <g id="react"/>
   <g id="check-selected"/>
   <g id="turn-off"/>
   <g id="code-block"/>
   <g id="user"/>
   <g id="coffee-bean"/>
   <g id="coffee-beans">
    <g id="coffee-bean1"/>
   </g>
   <g id="coffee-bean-filled"/>
   <g id="coffee-beans-filled">
    <g id="coffee-bean2"/>
   </g>
   <g id="clipboard"/>
   <g id="clipboard-paste"/>
   <g id="clipboard-copy"/>
   <g id="Layer1"/>
  </g>
 </g>
</svg>