<svg version="1.1" viewBox="0.0 0.0 100.0 100.0" fill="none" stroke="none" stroke-linecap="square" stroke-miterlimit="10" xmlns:xlink="http://www.w3.org/1999/xlink" xmlns="http://www.w3.org/2000/svg"><clipPath id="p.0"><path d="m0 0l100.0 0l0 100.0l-100.0 0l0 -100.0z" clip-rule="nonzero"/></clipPath><g clip-path="url(#p.0)"><path fill="#000000" fill-opacity="0.0" d="m0 0l100.0 0l0 100.0l-100.0 0z" fill-rule="evenodd"/><path fill="#3c5377" d="m0 3.3334l0 0c0 -1.840986 1.492414 -3.3334 3.3334 -3.3334l93.333206 0c0.88407135 0 1.7319336 0.3511965 2.3570633 0.9763303c0.6251373 0.62513375 0.9763336 1.4729972 0.9763336 2.3570697l0 13.3331995c0 1.8409863 -1.4924164 3.3334007 -3.333397 3.3334007l-93.333206 0l0 0c-1.840986 0 -3.3334 -1.4924145 -3.3334 -3.3334007z" fill-rule="evenodd"/><path fill="#3c5377" d="m0 43.324352l0 0c0 -1.8409882 1.492414 -3.3334007 3.3334 -3.3334007l93.333206 0c0.88407135 0 1.7319336 0.3511963 2.3570633 0.9763298c0.6251373 0.6251335 0.9763336 1.4729958 0.9763336 2.357071l0 13.333199c0 1.8409882 -1.4924164 3.3334007 -3.333397 3.3334007l-93.333206 0l0 0c-1.840986 0 -3.3334 -1.4924126 -3.3334 -3.3334007z" fill-rule="evenodd"/><path fill="#3c5377" d="m0 83.3271l0 0c0 -1.8409805 1.492414 -3.333397 3.3334 -3.333397l93.333206 0c0.88407135 0 1.7319336 0.3511963 2.3570633 0.976326c0.6251373 0.6251373 0.9763336 1.4729996 0.9763336 2.357071l0 13.333199c0 1.8409882 -1.4924164 3.3334045 -3.333397 3.3334045l-93.333206 0l0 0c-1.840986 0 -3.3334 -1.4924164 -3.3334 -3.3334045z" fill-rule="evenodd"/></g></svg>