<svg version="1.1" viewBox="0.0 0.0 100.0 100.0" fill="none" stroke="none" stroke-linecap="square" stroke-miterlimit="10" xmlns:xlink="http://www.w3.org/1999/xlink" xmlns="http://www.w3.org/2000/svg"><clipPath id="p.0"><path d="m0 0l100.0 0l0 100.0l-100.0 0l0 -100.0z" clip-rule="nonzero"/></clipPath><g clip-path="url(#p.0)"><path fill="#000000" fill-opacity="0.0" d="m0 0l100.0 0l0 100.0l-100.0 0z" fill-rule="evenodd"/><path fill="#3c5377" d="m10.761229 1.3253274l0 0c1.3017359 -1.3017365 3.4122677 -1.3017365 4.7140045 0l83.191505 83.191505c0.62511444 0.6251221 0.9763031 1.4729614 0.9763031 2.35701c0 0.88404083 -0.35118866 1.7318802 -0.9763031 2.3570023l-9.427727 9.427727c-1.3017349 1.3017349 -3.4122696 1.3017349 -4.7140045 0l-83.191505 -83.19151c-1.3017366 -1.3017368 -1.3017366 -3.4122686 0 -4.7140055z" fill-rule="evenodd"/><path fill="#3c5377" d="m1.333501 89.238716l0 0c-1.3017366 -1.3017426 -1.3017366 -3.4122696 0 -4.7140045l83.191505 -83.19151c0.62511444 -0.625116 1.4729538 -0.9763025 2.3570023 -0.9763025c0.88404846 0 1.7318878 0.35118648 2.3570023 0.9763025l9.427727 9.427728c1.3017349 1.3017359 1.3017349 3.4122677 0 4.7140045l-83.191505 83.19151c-1.3017368 1.3017349 -3.4122686 1.3017349 -4.7140045 0z" fill-rule="evenodd"/></g></svg>