<svg version="1.1" viewBox="0.0 0.0 160.0 160.0" fill="none" stroke="none" stroke-linecap="square" stroke-miterlimit="10" xmlns:xlink="http://www.w3.org/1999/xlink" xmlns="http://www.w3.org/2000/svg"><clipPath id="p.0"><path d="m0 0l160.0 0l0 160.0l-160.0 0l0 -160.0z" clip-rule="nonzero"/></clipPath><g clip-path="url(#p.0)"><path fill="#000000" fill-opacity="0.0" d="m0 0l160.0 0l0 160.0l-160.0 0z" fill-rule="evenodd"/><path fill="#71a8c7" d="m3.055118 80.0l0 0c0 -42.495483 34.449398 -76.944885 76.944885 -76.944885l0 0c20.407051 0 39.978287 8.10667 54.40825 22.536634c14.429962 14.429964 22.536636 34.001198 22.536636 54.40825l0 0c0 42.495483 -34.4494 76.944885 -76.944885 76.944885l0 0c-42.495483 0 -76.944885 -34.4494 -76.944885 -76.944885z" fill-rule="evenodd"/><path fill="#ffffff" d="m32.582676 59.223305l0 0c0 -5.737499 4.651161 -10.38866 10.38866 -10.38866l74.05733 0c2.7552414 0 5.3976364 1.0945168 7.345894 3.0427704c1.9482498 1.9482498 3.0427628 4.590645 3.0427628 7.34589l0 41.55339c0 5.7374954 -4.651161 10.388657 -10.388657 10.388657l-74.05733 0c-5.737499 0 -10.38866 -4.651161 -10.38866 -10.388657z" fill-rule="evenodd"/><path fill="#71a8c7" d="m72.10499 69.97312l19.90551 10.015747l-19.90551 10.015747z" fill-rule="evenodd"/><path fill="#71a8c7" d="m90.845146 79.98846l0 0c0 -0.2783203 0.2608719 -0.50393677 0.5826721 -0.50393677l0 0c0.32180786 0 0.58267975 0.22561646 0.58267975 0.50393677l0 0c0 0.27831268 -0.2608719 0.50393677 -0.58267975 0.50393677l0 0c-0.32180023 0 -0.5826721 -0.22562408 -0.5826721 -0.50393677z" fill-rule="evenodd"/><path fill="#71a8c7" d="m71.5958 89.783226l0 0c0 -0.27831268 0.2608719 -0.50393677 0.5826721 -0.50393677l0 0c0.32180786 0 0.58267975 0.22562408 0.58267975 0.50393677l0 0c0 0.2783203 -0.2608719 0.50393677 -0.58267975 0.50393677l0 0c-0.32180023 0 -0.5826721 -0.22561646 -0.5826721 -0.50393677z" fill-rule="evenodd"/><path fill="#71a8c7" d="m71.5958 70.08399l0 0c0 -0.2783203 0.2608719 -0.50393677 0.5826721 -0.50393677l0 0c0.32180786 0 0.58267975 0.22561646 0.58267975 0.50393677l0 0c0 0.27831268 -0.2608719 0.50393677 -0.58267975 0.50393677l0 0c-0.32180023 0 -0.5826721 -0.22562408 -0.5826721 -0.50393677z" fill-rule="evenodd"/><path fill="#71a8c7" d="m72.10499 69.97312l19.90551 10.015747l-19.90551 10.015747z" fill-rule="evenodd"/><path stroke="#71a8c7" stroke-width="1.0" stroke-linejoin="round" stroke-linecap="butt" d="m72.10499 69.97312l19.90551 10.015747l-19.90551 10.015747z" fill-rule="evenodd"/></g></svg>