<svg version="1.1" viewBox="0.0 0.0 160.0 160.0" fill="none" stroke="none" stroke-linecap="square" stroke-miterlimit="10" xmlns:xlink="http://www.w3.org/1999/xlink" xmlns="http://www.w3.org/2000/svg"><clipPath id="p.0"><path d="m0 0l160.0 0l0 160.0l-160.0 0l0 -160.0z" clip-rule="nonzero"/></clipPath><g clip-path="url(#p.0)"><path fill="#000000" fill-opacity="0.0" d="m0 0l160.0 0l0 160.0l-160.0 0z" fill-rule="evenodd"/><path fill="#71a8c7" d="m3.055118 80.0l0 0c0 -42.495483 34.449398 -76.944885 76.944885 -76.944885l0 0c20.407051 0 39.978287 8.10667 54.40825 22.536634c14.429962 14.429964 22.536636 34.001198 22.536636 54.40825l0 0c0 42.495483 -34.4494 76.944885 -76.944885 76.944885l0 0c-42.495483 0 -76.944885 -34.4494 -76.944885 -76.944885z" fill-rule="evenodd"/><path fill="#000000" fill-opacity="0.0" d="m108.561676 65.338585l0 0c-10.636917 0 -19.259842 -7.931965 -19.259842 -17.716537l19.259842 0z" fill-rule="evenodd"/><path fill="#000000" fill-opacity="0.0" d="m108.561676 65.338585l0 0c-10.636917 0 -19.259842 -7.931965 -19.259842 -17.716537" fill-rule="evenodd"/><path stroke="#ffffff" stroke-width="12.0" stroke-linejoin="round" stroke-linecap="butt" d="m108.561676 65.338585l0 0c-10.636917 0 -19.259842 -7.931965 -19.259842 -17.716537" fill-rule="evenodd"/><path fill="#000000" fill-opacity="0.0" d="m89.30899 91.100685l0 0c0.025520325 8.829002 -7.0989456 16.013382 -15.927849 16.061806c-8.828903 0.048416138 -16.031738 -7.0573883 -16.103058 -15.886139c-0.07131958 -8.828743 7.015785 -16.049988 15.844315 -16.144203l0.1709137 16.014832z" fill-rule="evenodd"/><path fill="#000000" fill-opacity="0.0" d="m89.30899 91.100685l0 0c0.025520325 8.829002 -7.0989456 16.013382 -15.927849 16.061806c-8.828903 0.048416138 -16.031738 -7.0573883 -16.103058 -15.886139c-0.07131958 -8.828743 7.015785 -16.049988 15.844315 -16.144203" fill-rule="evenodd"/><path stroke="#ffffff" stroke-width="12.0" stroke-linejoin="round" stroke-linecap="butt" d="m89.30899 91.100685l0 0c0.025520325 8.829002 -7.0989456 16.013382 -15.927849 16.061806c-8.828903 0.048416138 -16.031738 -7.0573883 -16.103058 -15.886139c-0.07131958 -8.828743 7.015785 -16.049988 15.844315 -16.144203" fill-rule="evenodd"/><path fill="#000000" fill-opacity="0.0" d="m89.30899 91.100685l0 -43.464565" fill-rule="evenodd"/><path stroke="#ffffff" stroke-width="12.0" stroke-linejoin="round" stroke-linecap="butt" d="m89.30899 91.100685l0 -43.464565" fill-rule="evenodd"/></g></svg>