<svg version="1.1" viewBox="0.0 0.0 160.0 160.0" fill="none" stroke="none" stroke-linecap="square" stroke-miterlimit="10" xmlns:xlink="http://www.w3.org/1999/xlink" xmlns="http://www.w3.org/2000/svg"><clipPath id="p.0"><path d="m0 0l160.0 0l0 160.0l-160.0 0l0 -160.0z" clip-rule="nonzero"/></clipPath><g clip-path="url(#p.0)"><path fill="#000000" fill-opacity="0.0" d="m0 0l160.0 0l0 160.0l-160.0 0z" fill-rule="evenodd"/><path fill="#71a8c7" d="m3.055118 80.0l0 0c0 -42.495483 34.449398 -76.944885 76.944885 -76.944885l0 0c20.407051 0 39.978287 8.10667 54.40825 22.536634c14.429962 14.429964 22.536636 34.001198 22.536636 54.40825l0 0c0 42.495483 -34.4494 76.944885 -76.944885 76.944885l0 0c-42.495483 0 -76.944885 -34.4494 -76.944885 -76.944885z" fill-rule="evenodd"/><path fill="#ffffff" d="m56.475067 61.380577l0 0c0 -3.0701828 2.580532 -5.5590553 5.7637787 -5.5590553l0 0c1.5286484 0 2.99469 0.58568573 4.0756073 1.628212c1.0809174 1.0425224 1.6881714 2.4564896 1.6881714 3.9308434l0 0c0 3.0701828 -2.5805283 5.559059 -5.7637787 5.559059l0 0c-3.1832466 0 -5.7637787 -2.4888763 -5.7637787 -5.559059z" fill-rule="evenodd"/><path stroke="#ffffff" stroke-width="1.0" stroke-linejoin="round" stroke-linecap="butt" d="m56.475067 61.380577l0 0c0 -3.0701828 2.580532 -5.5590553 5.7637787 -5.5590553l0 0c1.5286484 0 2.99469 0.58568573 4.0756073 1.628212c1.0809174 1.0425224 1.6881714 2.4564896 1.6881714 3.9308434l0 0c0 3.0701828 -2.5805283 5.559059 -5.7637787 5.559059l0 0c-3.1832466 0 -5.7637787 -2.4888763 -5.7637787 -5.559059z" fill-rule="evenodd"/><path fill="#ffffff" d="m56.75853 72.002625l11.527557 0l0 33.480316l-11.527557 0z" fill-rule="evenodd"/><path fill="#ffffff" d="m73.74278 72.002625l11.527557 0l0 33.480316l-11.527557 0z" fill-rule="evenodd"/><path fill="#ffffff" d="m96.779526 84.10499l11.527557 0l0 21.385826l-11.527557 0z" fill-rule="evenodd"/><path fill="#ffffff" d="m83.19423 85.908134l0 0c0 -8.053787 5.4853897 -14.582672 12.251968 -14.582672c6.766571 0 12.251968 6.528885 12.251968 14.582672l0 0c-2.3815613 -5.433098 -7.1033096 -8.839874 -12.251968 -8.839874c-5.1486664 0 -9.870415 3.4067764 -12.251968 8.839874z" fill-rule="evenodd"/><path stroke="#ffffff" stroke-width="1.0" stroke-linejoin="round" stroke-linecap="butt" d="m83.19423 85.908134l0 0c0 -8.053787 5.4853897 -14.582672 12.251968 -14.582672c6.766571 0 12.251968 6.528885 12.251968 14.582672l0 0c-2.3815613 -5.433098 -7.1033096 -8.839874 -12.251968 -8.839874c-5.1486664 0 -9.870415 3.4067764 -12.251968 8.839874z" fill-rule="evenodd"/><path fill="#000000" fill-opacity="0.0" d="m83.78438 84.89529l0 0c-0.1187973 -2.3166122 1.1805878 -4.5088806 3.395607 -5.7289352c2.2150116 -1.2200546 4.9983673 -1.2765961 7.2735825 -0.14775848c2.2752075 1.1288376 3.6855392 3.2660599 3.6855392 5.585083l-7.181099 0z" fill-rule="evenodd"/><path fill="#000000" fill-opacity="0.0" d="m83.78438 84.89529l0 0c-0.1187973 -2.3166122 1.1805878 -4.5088806 3.395607 -5.7289352c2.2150116 -1.2200546 4.9983673 -1.2765961 7.2735825 -0.14775848c2.2752075 1.1288376 3.6855392 3.2660599 3.6855392 5.585083" fill-rule="evenodd"/><path stroke="#ffffff" stroke-width="3.0" stroke-linejoin="round" stroke-linecap="butt" d="m83.78438 84.89529l0 0c-0.1187973 -2.3166122 1.1805878 -4.5088806 3.395607 -5.7289352c2.2150116 -1.2200546 4.9983673 -1.2765961 7.2735825 -0.14775848c2.2752075 1.1288376 3.6855392 3.2660599 3.6855392 5.585083" fill-rule="evenodd"/><path fill="#ffffff" d="m96.4468 72.95016l11.748032 11.023621l-4.629921 4.9448853l-11.748032 -11.023621z" fill-rule="evenodd"/><path fill="#ffffff" d="m103.5419 79.31972l4.1574783 15.559059l-7.086609 1.8897629l-4.157486 -15.559059z" fill-rule="evenodd"/></g></svg>