<svg version="1.1" viewBox="0.0 0.0 160.0 160.0" fill="none" stroke="none" stroke-linecap="square" stroke-miterlimit="10" xmlns:xlink="http://www.w3.org/1999/xlink" xmlns="http://www.w3.org/2000/svg"><clipPath id="p.0"><path d="m0 0l160.0 0l0 160.0l-160.0 0l0 -160.0z" clip-rule="nonzero"/></clipPath><g clip-path="url(#p.0)"><path fill="#000000" fill-opacity="0.0" d="m0 0l160.0 0l0 160.0l-160.0 0z" fill-rule="evenodd"/><path fill="#71a8c7" d="m3.055118 80.0l0 0c0 -42.495483 34.449398 -76.944885 76.944885 -76.944885l0 0c20.407051 0 39.978287 8.10667 54.40825 22.536634c14.429962 14.429964 22.536636 34.001198 22.536636 54.40825l0 0c0 42.495483 -34.4494 76.944885 -76.944885 76.944885l0 0c-42.495483 0 -76.944885 -34.4494 -76.944885 -76.944885z" fill-rule="evenodd"/><path fill="#ffffff" d="m51.35452 98.85917l11.782715 -15.018402l7.874981 6.1898804l-11.782715 15.018402z" fill-rule="evenodd"/><path fill="#ffffff" d="m114.33286 99.3287l-11.782715 -15.018402l-7.874977 6.189888l11.782715 15.018402z" fill-rule="evenodd"/><path fill="#ffffff" d="m108.94224 98.11654l-53.3396 -0.059516907l0 10.018883l53.3396 0.059516907z" fill-rule="evenodd"/><path fill="#ffffff" d="m68.22174 106.28781l0 0c0 -5.07856 6.1456375 -9.195541 13.726662 -9.195541l0 0c7.581024 0 13.726662 4.1169815 13.726662 9.195541l0 0c0 5.0785675 -6.1456375 9.195549 -13.726662 9.195549l0 0c-7.581024 0 -13.726662 -4.1169815 -13.726662 -9.195549z" fill-rule="evenodd"/><path fill="#71a8c7" d="m75.8686 73.57891l12.536491 6.308922l-12.536491 6.308914z" fill-rule="evenodd"/><path fill="#71a8c7" d="m87.67115 79.887566l0 0c0 -0.17530823 0.16429901 -0.3174286 0.36696625 -0.3174286l0 0c0.20267487 0 0.36697388 0.14212036 0.36697388 0.3174286l0 0c0 0.17531586 -0.16429901 0.31743622 -0.36697388 0.31743622l0 0c-0.20266724 0 -0.36696625 -0.14212036 -0.36696625 -0.31743622z" fill-rule="evenodd"/><path fill="#71a8c7" d="m75.54791 86.0573l0 0c0 -0.17531586 0.16429901 -0.3174286 0.36697388 -0.3174286l0 0c0.20266724 0 0.36696625 0.14211273 0.36696625 0.3174286l0 0c0 0.17530823 -0.16429901 0.3174286 -0.36696625 0.3174286l0 0c-0.20267487 0 -0.36697388 -0.14212036 -0.36697388 -0.3174286z" fill-rule="evenodd"/><path fill="#71a8c7" d="m75.54791 73.64874l0 0c0 -0.17530823 0.16429901 -0.3174286 0.36697388 -0.3174286l0 0c0.20266724 0 0.36696625 0.14212036 0.36696625 0.3174286l0 0c0 0.17531586 -0.16429901 0.3174286 -0.36696625 0.3174286l0 0c-0.20267487 0 -0.36697388 -0.14211273 -0.36697388 -0.3174286z" fill-rule="evenodd"/><path fill="#71a8c7" d="m75.8686 73.57891l12.536491 6.308922l-12.536491 6.308914z" fill-rule="evenodd"/><path stroke="#71a8c7" stroke-width="1.0" stroke-linejoin="round" stroke-linecap="butt" d="m75.8686 73.57891l12.536491 6.308922l-12.536491 6.308914z" fill-rule="evenodd"/><path fill="#ffffff" d="m61.85927 62.537045l0 0c0 -10.376263 9.080803 -18.787884 20.282532 -18.787884l0 0c11.201736 0 20.28254 8.411621 20.28254 18.787884l0 0c0 10.376263 -9.080803 18.787884 -20.28254 18.787884l0 0c-11.201729 0 -20.282532 -8.411621 -20.282532 -18.787884z" fill-rule="evenodd"/><path stroke="#ffffff" stroke-width="3.0" stroke-linejoin="round" stroke-linecap="butt" d="m61.85927 62.537045l0 0c0 -10.376263 9.080803 -18.787884 20.282532 -18.787884l0 0c11.201736 0 20.28254 8.411621 20.28254 18.787884l0 0c0 10.376263 -9.080803 18.787884 -20.28254 18.787884l0 0c-11.201729 0 -20.282532 -8.411621 -20.282532 -18.787884z" fill-rule="evenodd"/><path fill="#ffffff" d="m65.14407 67.39761c-0.24136353 5.4368515 -1.3575897 8.947334 -2.5066032 7.883156c-1.1490097 -1.0641785 -1.9052582 -6.3088913 -1.6982307 -11.777538c0.20703125 -5.468647 1.300663 -9.135845 2.4558601 -8.235069z" fill-rule="evenodd"/><path fill="#ffffff" d="m99.129616 67.39761c0.24136353 5.4368515 1.3575897 8.947334 2.5065994 7.883156c1.1490097 -1.0641785 1.9052582 -6.3088913 1.6982346 -11.777538c-0.20703125 -5.468647 -1.3006668 -9.135845 -2.455864 -8.235069z" fill-rule="evenodd"/><path fill="#ffffff" d="m55.000725 78.50959l0 0c-1.448967 0.40742493 -2.88982 -0.13134003 -3.5233345 -1.3174362c-0.6335182 -1.1860962 -0.30433655 -2.7286606 0.8049507 -3.772049c1.1092834 -1.0433884 2.7266388 -1.3317261 3.9549332 -0.7050781z" fill-rule="evenodd"/><path fill="#ffffff" d="m55.899208 72.57044l25.886269 10.058563l-2.3406754 6.05101l-25.886265 -10.058563z" fill-rule="evenodd"/><path fill="#ffffff" d="m109.7168 78.603516l0 0c1.4162064 0.21714783 2.70887 -0.44948578 3.203476 -1.6520462c0.49460602 -1.2025528 0.07896423 -2.6682892 -1.0300369 -3.6323624c-1.1089935 -0.9640732 -2.6598282 -1.2078323 -3.8432465 -0.6040802z" fill-rule="evenodd"/><path fill="#ffffff" d="m108.64963 72.46004l-26.183815 10.157753l2.3406754 6.05101l26.183815 -10.157753z" fill-rule="evenodd"/><path fill="#000000" fill-opacity="0.0" d="m57.87219 74.5845l0 0c2.3248749 0 4.217209 -1.0794296 4.2446556 -2.4212418l-4.2446556 -0.028923035z" fill-rule="evenodd"/><path fill="#000000" fill-opacity="0.0" d="m57.87219 74.5845l0 0c2.3248749 0 4.217209 -1.0794296 4.2446556 -2.4212418" fill-rule="evenodd"/><path stroke="#ffffff" stroke-width="2.0" stroke-linejoin="round" stroke-linecap="butt" d="m57.87219 74.5845l0 0c2.3248749 0 4.217209 -1.0794296 4.2446556 -2.4212418" fill-rule="evenodd"/><path fill="#000000" fill-opacity="0.0" d="m62.116844 72.16326l0 -3.5905457" fill-rule="evenodd"/><path stroke="#ffffff" stroke-width="2.0" stroke-linejoin="round" stroke-linecap="butt" d="m62.116844 72.16326l0 -3.5905457" fill-rule="evenodd"/><path fill="#000000" fill-opacity="0.0" d="m106.97218 74.5243l0 0c-2.286705 0.4128723 -4.3402557 -0.30413818 -4.6064377 -1.6083527l4.1700363 -0.7822876z" fill-rule="evenodd"/><path fill="#000000" fill-opacity="0.0" d="m106.97218 74.5243l0 0c-2.286705 0.4128723 -4.3402557 -0.30413818 -4.6064377 -1.6083527" fill-rule="evenodd"/><path stroke="#ffffff" stroke-width="2.0" stroke-linejoin="round" stroke-linecap="butt" d="m106.97218 74.5243l0 0c-2.286705 0.4128723 -4.3402557 -0.30413818 -4.6064377 -1.6083527" fill-rule="evenodd"/><path fill="#000000" fill-opacity="0.0" d="m105.23985 78.01179l-6.110237 -10.614174" fill-rule="evenodd"/><path stroke="#ffffff" stroke-width="2.0" stroke-linejoin="round" stroke-linecap="butt" d="m105.23985 78.01179l-6.110237 -10.614174" fill-rule="evenodd"/><path fill="#ffffff" d="m60.905476 75.5153l0 0c0 -2.1256561 1.7229118 -3.8488388 3.8482246 -3.8488388l0 0c1.0206146 0 1.9994278 0.40550232 2.7211075 1.1273041c0.7216873 0.7217941 1.127121 1.7007599 1.127121 2.7215347l0 0c0 2.1256561 -1.722908 3.8488388 -3.8482285 3.8488388l0 0c-2.1253128 0 -3.8482246 -1.7231827 -3.8482246 -3.8488388z" fill-rule="evenodd"/><path fill="#ffffff" d="m95.67176 76.050964l0 0c0 -2.4214935 1.722908 -4.384506 3.8482208 -4.384506l0 0c1.0206146 0 1.9994278 0.46193695 2.7211075 1.284195c0.7216873 0.82225037 1.127121 1.9374695 1.127121 3.1003113l0 0c0 2.4214935 -1.722908 4.3844986 -3.8482285 4.3844986l0 0c-2.1253128 0 -3.8482208 -1.9630051 -3.8482208 -4.3844986z" fill-rule="evenodd"/><path fill="#000000" fill-opacity="0.0" d="m60.248413 80.28619l0 0c1.3980141 0.8961792 1.7820778 2.9844666 0.886734 4.8214874l-2.8861694 -1.4085922z" fill-rule="evenodd"/><path fill="#000000" fill-opacity="0.0" d="m60.248413 80.28619l0 0c1.3980141 0.8961792 1.7820778 2.9844666 0.886734 4.8214874" fill-rule="evenodd"/><path stroke="#ffffff" stroke-width="2.0" stroke-linejoin="round" stroke-linecap="butt" d="m60.248413 80.28619l0 0c1.3980141 0.8961792 1.7820778 2.9844666 0.886734 4.8214874" fill-rule="evenodd"/><path fill="#000000" fill-opacity="0.0" d="m61.592075 84.62322c-1.190731 1.6485977 -4.355095 7.4965286 -7.1443863 9.891579c-2.7892914 2.3950577 -7.9928055 3.7322845 -9.59137 4.478737" fill-rule="evenodd"/><path stroke="#ffffff" stroke-width="2.0" stroke-linejoin="round" stroke-linecap="butt" d="m61.592075 84.62322c-1.190731 1.6485977 -4.355095 7.4965286 -7.1443863 9.891579c-2.7892914 2.3950577 -7.9928055 3.7322845 -9.59137 4.478737" fill-rule="evenodd"/><path fill="#ffffff" d="m42.990063 99.85655l0 0c0 -0.99160767 0.8570137 -1.7954636 1.914196 -1.7954636l0 0c0.5076752 0 0.99456024 0.18916321 1.3535385 0.5258789c0.3589821 0.3367157 0.5606575 0.793396 0.5606575 1.2695847l0 0c0 0.99160767 -0.8570175 1.7954636 -1.914196 1.7954636l0 0c-1.0571823 0 -1.914196 -0.8038559 -1.914196 -1.7954636z" fill-rule="evenodd"/><path fill="#000000" fill-opacity="0.0" d="m54.254967 103.83824l0 0c-5.680294 -0.33966064 -10.205151 -1.9873428 -10.106556 -3.6801987l10.28508 0.61502075z" fill-rule="evenodd"/><path fill="#000000" fill-opacity="0.0" d="m54.254967 103.83824l0 0c-5.680294 -0.33966064 -10.205151 -1.9873428 -10.106556 -3.6801987" fill-rule="evenodd"/><path stroke="#ffffff" stroke-width="2.0" stroke-linejoin="round" stroke-linecap="butt" d="m54.254967 103.83824l0 0c-5.680294 -0.33966064 -10.205151 -1.9873428 -10.106556 -3.6801987" fill-rule="evenodd"/><path fill="#000000" fill-opacity="0.0" d="m53.814026 103.66075c0.18521118 0.1399765 0.77148056 0.03113556 1.1112595 0.83986664c0.3397827 0.8087311 0.4024315 3.328331 0.92741776 4.012512c0.5249901 0.6841812 0.9255028 0.15486145 2.2225227 0.0925827c1.2970161 -0.06227112 4.0923996 -0.46622467 5.5595818 -0.46622467c1.4671822 0 1.4521294 -0.42020416 3.243496 0.46622467c1.7913666 0.88643646 5.2657623 3.6859894 7.5046997 4.852379c2.2389297 1.1663895 3.6437378 1.9748459 5.9289093 2.145958c2.2851639 0.17111969 5.311447 -0.12399292 7.782097 -1.1192703c2.4706573 -0.9952698 4.818199 -3.7636948 7.041809 -4.852379c2.2236176 -1.0886841 4.138092 -1.5708923 6.2998734 -1.6797333c2.161789 -0.10884094 5.281082 1.6488724 6.670845 1.0266876c1.3897552 -0.62218475 1.0190659 -3.8733597 1.6677094 -4.759796c0.6486435 -0.88642883 0.98870087 -0.20114899 2.2241592 -0.5588074c1.235466 -0.3576584 3.9225159 -0.9961014 5.188614 -1.5871506c1.2661057 -0.5910492 2.0066757 -1.6326141 2.4080048 -1.959137" fill-rule="evenodd"/><path stroke="#ffffff" stroke-width="2.0" stroke-linejoin="round" stroke-linecap="butt" d="m53.814026 103.66075c0.18521118 0.1399765 0.77148056 0.03113556 1.1112595 0.83986664c0.3397827 0.8087311 0.4024315 3.328331 0.92741776 4.012512c0.5249901 0.6841812 0.9255028 0.15486145 2.2225227 0.0925827c1.2970161 -0.06227112 4.0923996 -0.46622467 5.5595818 -0.46622467c1.4671822 0 1.4521294 -0.42020416 3.243496 0.46622467c1.7913666 0.88643646 5.2657623 3.6859894 7.5046997 4.852379c2.2389297 1.1663895 3.6437378 1.9748459 5.9289093 2.145958c2.2851639 0.17111969 5.311447 -0.12399292 7.782097 -1.1192703c2.4706573 -0.9952698 4.818199 -3.7636948 7.041809 -4.852379c2.2236176 -1.0886841 4.138092 -1.5708923 6.2998734 -1.6797333c2.161789 -0.10884094 5.281082 1.6488724 6.670845 1.0266876c1.3897552 -0.62218475 1.0190659 -3.8733597 1.6677094 -4.759796c0.6486435 -0.88642883 0.98870087 -0.20114899 2.2241592 -0.5588074c1.235466 -0.3576584 3.9225159 -0.9961014 5.188614 -1.5871506c1.2661057 -0.5910492 2.0066757 -1.6326141 2.4080048 -1.959137" fill-rule="evenodd"/><path fill="#000000" fill-opacity="0.0" d="m104.290855 80.29801l0 0c-1.3969727 0.90327454 -1.7803802 3.0075455 -0.88536835 4.8592224l2.8861694 -1.4185181z" fill-rule="evenodd"/><path fill="#000000" fill-opacity="0.0" d="m104.290855 80.29801l0 0c-1.3969727 0.90327454 -1.7803802 3.0075455 -0.88536835 4.8592224" fill-rule="evenodd"/><path stroke="#ffffff" stroke-width="2.0" stroke-linejoin="round" stroke-linecap="butt" d="m104.290855 80.29801l0 0c-1.3969727 0.90327454 -1.7803802 3.0075455 -0.88536835 4.8592224" fill-rule="evenodd"/><path fill="#000000" fill-opacity="0.0" d="m102.94775 84.67282c1.1907349 1.6624451 4.355095 7.559494 7.1443863 9.97467c2.7892914 2.4151688 7.9928055 3.7636337 9.59137 4.5163574" fill-rule="evenodd"/><path stroke="#ffffff" stroke-width="2.0" stroke-linejoin="round" stroke-linecap="butt" d="m102.94775 84.67282c1.1907349 1.6624451 4.355095 7.559494 7.1443863 9.97467c2.7892914 2.4151688 7.9928055 3.7636337 9.59137 4.5163574" fill-rule="evenodd"/><path fill="#ffffff" d="m121.54976 100.0387l0 0c0 -1.0025635 -0.8570099 -1.8153 -1.9141922 -1.8153l0 0c-0.5076752 0 -0.99456024 0.19125366 -1.3535385 0.5316925c-0.3589859 0.3404312 -0.5606613 0.8021622 -0.5606613 1.2836075l0 0c0 1.0025635 0.8570175 1.8153076 1.9141998 1.8153076l0 0c1.0571823 0 1.9141922 -0.81274414 1.9141922 -1.8153076z" fill-rule="evenodd"/><path fill="#ffffff" d="m110.286095 104.04431l0 0c5.68029 -0.34514618 10.205147 -2.0105896 10.106552 -3.7198792l-10.28508 0.62493896z" fill-rule="evenodd"/><path fill="#000000" fill-opacity="0.0" d="m110.286095 104.04431l0 0c5.68029 -0.34514618 10.205147 -2.0105896 10.106552 -3.7198792" fill-rule="evenodd"/><path stroke="#ffffff" stroke-width="2.0" stroke-linejoin="round" stroke-linecap="butt" d="m110.286095 104.04431l0 0c5.68029 -0.34514618 10.205147 -2.0105896 10.106552 -3.7198792" fill-rule="evenodd"/><path fill="#ffffff" d="m61.85927 81.32493l0 0c0 -1.9073486E-4 1.5258789E-4 -3.4332275E-4 3.4713745E-4 -3.4332275E-4l41.516865 3.4332275E-4c9.1552734E-5 0 1.7547607E-4 3.8146973E-5 2.4414062E-4 9.918213E-5c6.1035156E-5 6.866455E-5 9.918213E-5 1.5258789E-4 9.918213E-5 2.4414062E-4l-3.4332275E-4 27.179596c0 1.9073486E-4 -1.6021729E-4 3.4332275E-4 -3.5095215E-4 3.4332275E-4l-41.51686 -3.4332275E-4l0 0c-1.9073486E-4 0 -3.4713745E-4 -1.6021729E-4 -3.4713745E-4 -3.5095215E-4z" fill-rule="evenodd"/><path fill="#ffffff" d="m98.22567 100.06817l0 0c0 -2.421486 4.551506 -4.3844986 10.166061 -4.3844986l0 0c5.614563 0 10.166069 1.9630127 10.166069 4.3844986l0 0c0 2.4214935 -4.551506 4.384506 -10.166069 4.384506l0 0c-5.6145554 0 -10.166061 -1.9630127 -10.166061 -4.384506z" fill-rule="evenodd"/><path fill="#ffffff" d="m45.788624 100.06817l0 0c0 -2.421486 4.551502 -4.3844986 10.166061 -4.3844986l0 0c5.614563 0 10.166065 1.9630127 10.166065 4.3844986l0 0c0 2.4214935 -4.551502 4.384506 -10.166065 4.384506l0 0c-5.614559 0 -10.166061 -1.9630127 -10.166061 -4.384506z" fill-rule="evenodd"/></g></svg>