<svg version="1.1" viewBox="0.0 0.0 160.0 160.0" fill="none" stroke="none" stroke-linecap="square" stroke-miterlimit="10" xmlns:xlink="http://www.w3.org/1999/xlink" xmlns="http://www.w3.org/2000/svg"><clipPath id="p.0"><path d="m0 0l160.0 0l0 160.0l-160.0 0l0 -160.0z" clip-rule="nonzero"/></clipPath><g clip-path="url(#p.0)"><path fill="#000000" fill-opacity="0.0" d="m0 0l160.0 0l0 160.0l-160.0 0z" fill-rule="evenodd"/><path fill="#71a8c7" d="m3.055118 80.0l0 0c0 -42.495483 34.449398 -76.944885 76.944885 -76.944885l0 0c20.407051 0 39.978287 8.10667 54.40825 22.536634c14.429962 14.429964 22.536636 34.001198 22.536636 54.40825l0 0c0 42.495483 -34.4494 76.944885 -76.944885 76.944885l0 0c-42.495483 0 -76.944885 -34.4494 -76.944885 -76.944885z" fill-rule="evenodd"/><path fill="#000000" fill-opacity="0.0" d="m44.692913 59.85307l0 0c0 -8.372723 6.7874336 -15.160156 15.160156 -15.160156l40.293858 0l0 0c4.020729 0 7.87677 1.5972252 10.719856 4.4403076c2.8430786 2.8430824 4.4403 6.699127 4.4403 10.719849l0 40.293858c0 8.372726 -6.78743 15.160156 -15.160156 15.160156l-40.293858 0c-8.372723 0 -15.160156 -6.78743 -15.160156 -15.160156z" fill-rule="evenodd"/><path stroke="#ffffff" stroke-width="4.0" stroke-linejoin="round" stroke-linecap="butt" d="m44.692913 59.85307l0 0c0 -8.372723 6.7874336 -15.160156 15.160156 -15.160156l40.293858 0l0 0c4.020729 0 7.87677 1.5972252 10.719856 4.4403076c2.8430786 2.8430824 4.4403 6.699127 4.4403 10.719849l0 40.293858c0 8.372726 -6.78743 15.160156 -15.160156 15.160156l-40.293858 0c-8.372723 0 -15.160156 -6.78743 -15.160156 -15.160156z" fill-rule="evenodd"/><path fill="#000000" fill-opacity="0.0" d="m64.01575 80.0l0 0c0 -8.827858 7.156395 -15.984253 15.984253 -15.984253l0 0c4.2392883 0 8.304947 1.6840515 11.302574 4.681679c2.9976273 2.9976273 4.681679 7.063286 4.681679 11.302574l0 0c0 8.827858 -7.156395 15.984253 -15.984253 15.984253l0 0c-8.827858 0 -15.984253 -7.156395 -15.984253 -15.984253z" fill-rule="evenodd"/><path stroke="#ffffff" stroke-width="4.0" stroke-linejoin="round" stroke-linecap="butt" d="m64.01575 80.0l0 0c0 -8.827858 7.156395 -15.984253 15.984253 -15.984253l0 0c4.2392883 0 8.304947 1.6840515 11.302574 4.681679c2.9976273 2.9976273 4.681679 7.063286 4.681679 11.302574l0 0c0 8.827858 -7.156395 15.984253 -15.984253 15.984253l0 0c-8.827858 0 -15.984253 -7.156395 -15.984253 -15.984253z" fill-rule="evenodd"/><path fill="#ffffff" d="m99.67979 56.32546l0 0c0 -2.600521 2.1081467 -4.70866 4.708664 -4.70866l0 0c1.2488174 0 2.4464798 0.49608994 3.3295288 1.3791351c0.8830414 0.8830452 1.3791351 2.0807114 1.3791351 3.329525l0 0c0 2.600521 -2.108139 4.708664 -4.708664 4.708664l0 0c-2.6005173 0 -4.708664 -2.1081429 -4.708664 -4.708664z" fill-rule="evenodd"/></g></svg>