<svg version="1.1" viewBox="0.0 0.0 160.0 160.0" fill="none" stroke="none" stroke-linecap="square" stroke-miterlimit="10" xmlns:xlink="http://www.w3.org/1999/xlink" xmlns="http://www.w3.org/2000/svg"><clipPath id="p.0"><path d="m0 0l160.0 0l0 160.0l-160.0 0l0 -160.0z" clip-rule="nonzero"/></clipPath><g clip-path="url(#p.0)"><path fill="#000000" fill-opacity="0.0" d="m0 0l160.0 0l0 160.0l-160.0 0z" fill-rule="evenodd"/><path fill="#71a8c7" d="m3.055118 80.0l0 0c0 -42.495483 34.449398 -76.944885 76.944885 -76.944885l0 0c20.407051 0 39.978287 8.10667 54.40825 22.536634c14.429962 14.429964 22.536636 34.001198 22.536636 54.40825l0 0c0 42.495483 -34.4494 76.944885 -76.944885 76.944885l0 0c-42.495483 0 -76.944885 -34.4494 -76.944885 -76.944885z" fill-rule="evenodd"/><path fill="#000000" fill-opacity="0.0" d="m79.261154 61.56168l0 0c0 -2.412365 1.0321655 -4.7094574 2.8358994 -6.3113403c1.8037415 -1.6018867 4.2066727 -2.3554726 6.60215 -2.0705032l-0.99710083 8.381844z" fill-rule="evenodd"/><path fill="#000000" fill-opacity="0.0" d="m79.261154 61.56168l0 0c0 -2.412365 1.0321655 -4.7094574 2.8358994 -6.3113403c1.8037415 -1.6018867 4.2066727 -2.3554726 6.60215 -2.0705032" fill-rule="evenodd"/><path stroke="#ffffff" stroke-width="12.0" stroke-linejoin="round" stroke-linecap="butt" d="m79.261154 61.56168l0 0c0 -2.412365 1.0321655 -4.7094574 2.8358994 -6.3113403c1.8037415 -1.6018867 4.2066727 -2.3554726 6.60215 -2.0705032" fill-rule="evenodd"/><path fill="#ffffff" d="m73.279526 61.16802l0 0c0 -1.1045914 0.8954468 -2.0000381 2.0000381 -2.0000381l7.9999237 0l0 0c0.5304413 0 1.0391617 0.21071625 1.4142456 0.58579636c0.3750763 0.3750801 0.58579254 0.8838005 0.58579254 1.4142418l0 49.7637c0 1.1045914 -0.8954468 2.0000381 -2.0000381 2.0000381l-7.9999237 0c-1.1045914 0 -2.0000381 -0.8954468 -2.0000381 -2.0000381z" fill-rule="evenodd"/><path fill="#ffffff" d="m96.32729 85.48294l1.7448883 -12.666664l-8.724411 0l0 12.666664z" fill-rule="evenodd"/><path fill="#ffffff" d="m61.927822 72.81628l28.850391 0l0 12.661415l-28.850391 0z" fill-rule="evenodd"/><path fill="#ffffff" d="m83.3189 49.036747l14.74015 0l0 10.110233l-14.74015 0z" fill-rule="evenodd"/><path fill="#ffffff" d="m98.05905 47.5811l-10.062988 -0.51285934l0 2.5643044l10.062988 0z" fill-rule="evenodd"/></g></svg>