<svg version="1.1" viewBox="0.0 0.0 160.0 160.0" fill="none" stroke="none" stroke-linecap="square" stroke-miterlimit="10" xmlns:xlink="http://www.w3.org/1999/xlink" xmlns="http://www.w3.org/2000/svg"><clipPath id="p.0"><path d="m0 0l160.0 0l0 160.0l-160.0 0l0 -160.0z" clip-rule="nonzero"/></clipPath><g clip-path="url(#p.0)"><path fill="#000000" fill-opacity="0.0" d="m0 0l160.0 0l0 160.0l-160.0 0z" fill-rule="evenodd"/><path fill="#71a8c7" d="m3.055118 80.0l0 0c0 -42.495483 34.449398 -76.944885 76.944885 -76.944885l0 0c20.407051 0 39.978287 8.10667 54.40825 22.536634c14.429962 14.429964 22.536636 34.001198 22.536636 54.40825l0 0c0 42.495483 -34.4494 76.944885 -76.944885 76.944885l0 0c-42.495483 0 -76.944885 -34.4494 -76.944885 -76.944885z" fill-rule="evenodd"/><path fill="#000000" fill-opacity="0.0" d="m86.0081 60.00525c0.117507935 0.4181366 0.4835739 1.4031334 0.7050171 2.508812c0.2214508 1.1056786 0.66269684 2.3864288 0.6236725 4.125267c-0.039031982 1.7388306 -0.4018097 4.2994843 -0.85785675 6.307724c-0.45603943 2.0082397 -1.1092911 3.7734146 -1.8783951 5.7417145c-0.76911163 1.9682922 -1.6807861 4.005432 -2.7362518 6.068062c-1.0554733 2.0626297 -2.9971466 5.256439 -3.5965729 6.307724" fill-rule="evenodd"/><path stroke="#ffffff" stroke-width="2.0" stroke-linejoin="round" stroke-linecap="butt" d="m86.0081 60.00525c0.117507935 0.4181366 0.4835739 1.4031334 0.7050171 2.508812c0.2214508 1.1056786 0.66269684 2.3864288 0.6236725 4.125267c-0.039031982 1.7388306 -0.4018097 4.2994843 -0.85785675 6.307724c-0.45603943 2.0082397 -1.1092911 3.7734146 -1.8783951 5.7417145c-0.76911163 1.9682922 -1.6807861 4.005432 -2.7362518 6.068062c-1.0554733 2.0626297 -2.9971466 5.256439 -3.5965729 6.307724" fill-rule="evenodd"/><path fill="#000000" fill-opacity="0.0" d="m86.178474 60.503937c2.1093674 -0.43000793 10.546806 -2.1500435 12.656174 -2.5800514" fill-rule="evenodd"/><path stroke="#ffffff" stroke-width="2.0" stroke-linejoin="round" stroke-linecap="butt" d="m86.178474 60.503937c2.1093674 -0.43000793 10.546806 -2.1500435 12.656174 -2.5800514" fill-rule="evenodd"/><path fill="#000000" fill-opacity="0.0" d="m98.96095 58.089237c0.15554047 0.40852737 0.6502304 1.4929008 0.93323517 2.4511604c0.28299713 0.9582634 0.6373062 2.0728302 0.7647629 3.2984085c0.1274643 1.2255783 0.113204956 2.7171478 0 4.0550766c-0.11319733 1.3379211 -0.11363983 2.0 -0.6791992 3.9724731c-0.56555176 1.9724731 -1.6819534 5.3969955 -2.7141266 7.8623657c-1.0321655 2.4653702 -2.135643 4.549301 -3.4788895 6.9298553c-1.3432465 2.3805542 -2.7849884 4.6767426 -4.5805893 7.3534775c-1.7956009 2.6767426 -5.1608505 7.2557907 -6.1930237 8.706947" fill-rule="evenodd"/><path stroke="#ffffff" stroke-width="2.0" stroke-linejoin="round" stroke-linecap="butt" d="m98.96095 58.089237c0.15554047 0.40852737 0.6502304 1.4929008 0.93323517 2.4511604c0.28299713 0.9582634 0.6373062 2.0728302 0.7647629 3.2984085c0.1274643 1.2255783 0.113204956 2.7171478 0 4.0550766c-0.11319733 1.3379211 -0.11363983 2.0 -0.6791992 3.9724731c-0.56555176 1.9724731 -1.6819534 5.3969955 -2.7141266 7.8623657c-1.0321655 2.4653702 -2.135643 4.549301 -3.4788895 6.9298553c-1.3432465 2.3805542 -2.7849884 4.6767426 -4.5805893 7.3534775c-1.7956009 2.6767426 -5.1608505 7.2557907 -6.1930237 8.706947" fill-rule="evenodd"/><path fill="#ffffff" d="m85.01312 59.758476l3.6535416 -0.8503952l0.5669327 2.4566917l-3.6535416 0.8503952z" fill-rule="evenodd"/><path fill="#ffffff" d="m99.479454 56.798454l1.3841019 3.4189835l-2.9221573 0.65919113l-0.799675 -3.5508232z" fill-rule="evenodd"/><path fill="#ffffff" d="m65.52756 91.06562l18.204727 0l0 12.157478l-18.204727 0z" fill-rule="evenodd"/><path fill="#ffffff" d="m77.48294 101.27037l-6.1978226 -37.812153l-6.983284 -5.0224953l-5.999996 0.9763794l7.1811028 43.81102z" fill-rule="evenodd"/><path fill="#ffffff" d="m74.21591 57.824154l5.101349 40.540768l-1.7575607 2.2623825l-10.052452 1.2598419l-5.354332 -42.55118z" fill-rule="evenodd"/><path fill="#ffffff" d="m74.14836 58.017807l-13.763649 0.7897186l-1.5119438 1.6984711l0.09448624 1.6063004l15.370079 -0.88188934z" fill-rule="evenodd"/><path fill="#ffffff" d="m58.301777 58.976734l15.905514 -1.5748024l0.06298828 0.62992096l-15.90551 1.5748024z" fill-rule="evenodd"/><path fill="#ffffff" d="m87.62205 74.514435l0 0c0 -6.9492188 2.1292877 -12.582676 4.755905 -12.582676l0 0c1.2613449 0 2.4710312 1.3256721 3.3629303 3.6853828c0.89190674 2.3597107 1.3929749 5.560158 1.3929749 8.897293l0 0c0 6.9492188 -2.1292877 12.58268 -4.755905 12.58268l0 0c-2.6266174 0 -4.755905 -5.633461 -4.755905 -12.58268z" fill-rule="evenodd"/><path fill="#ffffff" d="m93.821526 68.04199l0 0c0 -5.4967537 1.5511398 -9.952755 3.4645615 -9.952755l0 0c0.9188614 0 1.800087 1.0485916 2.4498215 2.9150963c0.6497345 1.8665047 1.0147476 4.3980255 1.0147476 7.0376587l0 0c0 5.4967575 -1.5511398 9.952759 -3.464569 9.952759l0 0c-0.9188614 0 -1.800087 -1.0485916 -2.4498138 -2.9150925c-0.6497345 -1.8665085 -1.0147476 -4.3980255 -1.0147476 -7.0376663z" fill-rule="evenodd"/><path fill="#ffffff" d="m90.70833 58.679768l0 0c3.0353928 -0.8175545 6.285736 1.4598007 7.259842 5.0866165l0 0c0.97411346 3.626812 -0.6968918 7.2296867 -3.7322845 8.047245l0 0c-3.0353851 0.81755066 -6.2857285 -1.4598007 -7.259842 -5.0866165l0 0c-0.97410583 -3.6268158 0.6968918 -7.2296867 3.7322845 -8.047245z" fill-rule="evenodd"/><path fill="#ffffff" d="m75.48292 94.93922l14.29921 -22.645676l8.598427 5.448822l-14.29921 22.645668z" fill-rule="evenodd"/><path fill="#ffffff" d="m84.17339 80.56122l2.5826797 -9.574806l2.551178 0.69291687l-2.582672 9.574799z" fill-rule="evenodd"/></g></svg>